<?xml version="1.0" encoding="UTF-8" standalone="no"?>
<!DOCTYPE svg PUBLIC "-//W3C//DTD SVG 1.1//EN"
 "http://www.w3.org/Graphics/SVG/1.1/DTD/svg11.dtd">
<!-- Generated by graphviz version 2.43.0 (0)
 -->
<!-- Title: %3 Pages: 1 -->
<svg width="693pt" height="451pt"
 viewBox="0.00 0.00 693.00 451.00" xmlns="http://www.w3.org/2000/svg" xmlns:xlink="http://www.w3.org/1999/xlink">
<g id="graph0" class="graph" transform="scale(1 1) rotate(0) translate(4 447)">
<title>%3</title>
<polygon fill="white" stroke="transparent" points="-4,4 -4,-447 689,-447 689,4 -4,4"/>
<!-- tilde_node -->
<g id="node1" class="node">
<title>tilde_node</title>
<polygon fill="none" stroke="black" points="400.5,-443 284.5,-443 284.5,-407 400.5,-407 400.5,-443"/>
<text text-anchor="middle" x="342.5" y="-421.3" font-family="Courier,monospace" font-size="14.00">x ~ Normal()</text>
</g>
<!-- base_node -->
<g id="node2" class="node">
<title>base_node</title>
<polygon fill="none" stroke="black" points="442,-356 243,-356 243,-306 442,-306 442,-356"/>
<text text-anchor="start" x="251" y="-341.8" font-family="Courier,monospace" font-size="14.00"> varname = </text>
<text text-anchor="start" x="342" y="-341.8" font-family="Courier,monospace" font-size="14.00" fill="#3b6ea8">@varname</text>
<text text-anchor="start" x="409" y="-341.8" font-family="Courier,monospace" font-size="14.00">(x)</text>
<text text-anchor="start" x="280.5" y="-327.8" font-family="Courier,monospace" font-size="14.00">dist = Normal()</text>
<text text-anchor="start" x="272" y="-313.8" font-family="Courier,monospace" font-size="14.00">x, varinfo = ... </text>
</g>
<!-- tilde_node&#45;&gt;base_node -->
<g id="edge1" class="edge">
<title>tilde_node&#45;&gt;base_node</title>
<path fill="none" stroke="black" stroke-dasharray="5,2" d="M342.5,-406.7C342.5,-395.33 342.5,-380.07 342.5,-366.31"/>
<polygon fill="black" stroke="black" points="346,-366.17 342.5,-356.17 339,-366.17 346,-366.17"/>
<text text-anchor="start" x="342.5" y="-378.8" font-family="Courier,monospace" font-size="14.00"> &#160;</text>
<text text-anchor="start" x="359.5" y="-378.8" font-family="Courier,monospace" font-size="14.00" fill="#3b6ea8">@model</text>
</g>
<!-- assume -->
<g id="node3" class="node">
<title>assume</title>
<polygon fill="none" stroke="black" points="474.5,-255 210.5,-255 210.5,-219 474.5,-219 474.5,-255"/>
<text text-anchor="middle" x="342.5" y="-233.3" font-family="Courier,monospace" font-size="14.00">assume(varname, dist, varinfo)</text>
</g>
<!-- base_node&#45;&gt;assume -->
<g id="edge2" class="edge">
<title>base_node&#45;&gt;assume</title>
<path fill="none" stroke="black" stroke-dasharray="5,2" d="M342.5,-305.83C342.5,-293.35 342.5,-278.08 342.5,-265.19"/>
<polygon fill="black" stroke="black" points="346,-265.04 342.5,-255.04 339,-265.04 346,-265.04"/>
<text text-anchor="middle" x="409" y="-276.8" font-family="Courier,monospace" font-size="14.00"> &#160;tilde&#45;pipeline</text>
</g>
<!-- without_linking -->
<g id="node4" class="node">
<title>without_linking</title>
<polygon fill="none" stroke="black" points="561,-182 124,-182 124,-146 561,-146 561,-182"/>
<text text-anchor="middle" x="342.5" y="-160.3" font-family="Courier,monospace" font-size="14.00">f = from_internal_transform(varinfo, varname, dist)</text>
</g>
<!-- assume&#45;&gt;without_linking -->
<g id="edge3" class="edge">
<title>assume&#45;&gt;without_linking</title>
<path fill="none" stroke="black" d="M342.5,-218.81C342.5,-210.79 342.5,-201.05 342.5,-192.07"/>
<polygon fill="black" stroke="black" points="346,-192.03 342.5,-182.03 339,-192.03 346,-192.03"/>
</g>
<!-- with_logabsdetjac -->
<g id="node5" class="node">
<title>with_logabsdetjac</title>
<polygon fill="none" stroke="black" points="685,-109 0,-109 0,-73 685,-73 685,-109"/>
<text text-anchor="middle" x="342.5" y="-87.3" font-family="Courier,monospace" font-size="14.00">x, logjac = with_logabsdet_jacobian(f, getindex_internal(varinfo, varname, dist))</text>
</g>
<!-- without_linking&#45;&gt;with_logabsdetjac -->
<g id="edge4" class="edge">
<title>without_linking&#45;&gt;with_logabsdetjac</title>
<path fill="none" stroke="black" d="M342.5,-145.81C342.5,-137.79 342.5,-128.05 342.5,-119.07"/>
<polygon fill="black" stroke="black" points="346,-119.03 342.5,-109.03 339,-119.03 346,-119.03"/>
</g>
<!-- return -->
<g id="node6" class="node">
<title>return</title>
<polygon fill="none" stroke="black" points="537,-36 148,-36 148,0 537,0 537,-36"/>
<text text-anchor="start" x="156" y="-15.3" font-family="Courier,monospace" font-size="14.00"> </text>
<text text-anchor="start" x="165" y="-15.3" font-family="Courier,monospace" font-size="14.00" fill="#3b6ea8">return</text>
<text text-anchor="start" x="215" y="-15.3" font-family="Courier,monospace" font-size="14.00"> x, logpdf(dist, x) &#45; logjac, varinfo </text>
</g>
<!-- with_logabsdetjac&#45;&gt;return -->
<g id="edge5" class="edge">
<title>with_logabsdetjac&#45;&gt;return</title>
<path fill="none" stroke="black" d="M342.5,-72.81C342.5,-64.79 342.5,-55.05 342.5,-46.07"/>
<polygon fill="black" stroke="black" points="346,-46.03 342.5,-36.03 339,-46.03 346,-46.03"/>
</g>
</g>
</svg>
