<?xml version="1.0" encoding="UTF-8" standalone="no"?>
<!DOCTYPE svg PUBLIC "-//W3C//DTD SVG 1.1//EN"
 "http://www.w3.org/Graphics/SVG/1.1/DTD/svg11.dtd">
<!-- Generated by graphviz version 2.43.0 (0)
 -->
<!-- Title: %3 Pages: 1 -->
<svg width="794pt" height="538pt"
 viewBox="0.00 0.00 794.00 538.00" xmlns="http://www.w3.org/2000/svg" xmlns:xlink="http://www.w3.org/1999/xlink">
<g id="graph0" class="graph" transform="scale(1 1) rotate(0) translate(4 534)">
<title>%3</title>
<polygon fill="white" stroke="transparent" points="-4,4 -4,-534 790,-534 790,4 -4,4"/>
<!-- tilde_node -->
<g id="node1" class="node">
<title>tilde_node</title>
<polygon fill="none" stroke="black" points="436.5,-530 320.5,-530 320.5,-494 436.5,-494 436.5,-530"/>
<text text-anchor="middle" x="378.5" y="-508.3" font-family="Courier,monospace" font-size="14.00">x ~ Normal()</text>
</g>
<!-- base_node -->
<g id="node2" class="node">
<title>base_node</title>
<polygon fill="none" stroke="black" points="457.5,-443 299.5,-443 299.5,-393 457.5,-393 457.5,-443"/>
<text text-anchor="start" x="307.5" y="-428.8" font-family="Courier,monospace" font-size="14.00"> vn = </text>
<text text-anchor="start" x="357.5" y="-428.8" font-family="Courier,monospace" font-size="14.00" fill="#3b6ea8">@varname</text>
<text text-anchor="start" x="424.5" y="-428.8" font-family="Courier,monospace" font-size="14.00">(x)</text>
<text text-anchor="start" x="316.5" y="-414.8" font-family="Courier,monospace" font-size="14.00">dist = Normal()</text>
<text text-anchor="start" x="328.5" y="-400.8" font-family="Courier,monospace" font-size="14.00">x, vi = ... </text>
</g>
<!-- tilde_node&#45;&gt;base_node -->
<g id="edge1" class="edge">
<title>tilde_node&#45;&gt;base_node</title>
<path fill="none" stroke="black" stroke-dasharray="5,2" d="M378.5,-493.7C378.5,-482.33 378.5,-467.07 378.5,-453.31"/>
<polygon fill="black" stroke="black" points="382,-453.17 378.5,-443.17 375,-453.17 382,-453.17"/>
<text text-anchor="start" x="378.5" y="-465.8" font-family="Courier,monospace" font-size="14.00"> &#160;</text>
<text text-anchor="start" x="395.5" y="-465.8" font-family="Courier,monospace" font-size="14.00" fill="#3b6ea8">@model</text>
</g>
<!-- assume -->
<g id="node3" class="node">
<title>assume</title>
<polygon fill="none" stroke="black" points="469.5,-342 287.5,-342 287.5,-306 469.5,-306 469.5,-342"/>
<text text-anchor="middle" x="378.5" y="-320.3" font-family="Courier,monospace" font-size="14.00">assume(vn, dist, vi)</text>
</g>
<!-- base_node&#45;&gt;assume -->
<g id="edge2" class="edge">
<title>base_node&#45;&gt;assume</title>
<path fill="none" stroke="black" stroke-dasharray="5,2" d="M378.5,-392.83C378.5,-380.35 378.5,-365.08 378.5,-352.19"/>
<polygon fill="black" stroke="black" points="382,-352.04 378.5,-342.04 375,-352.04 382,-352.04"/>
<text text-anchor="middle" x="445" y="-363.8" font-family="Courier,monospace" font-size="14.00"> &#160;tilde&#45;pipeline</text>
</g>
<!-- iflinked -->
<g id="node4" class="node">
<title>iflinked</title>
<ellipse fill="none" stroke="black" cx="378.5" cy="-251" rx="118.88" ry="18"/>
<text text-anchor="start" x="295" y="-248.3" font-family="Courier,monospace" font-size="14.00"> </text>
<text text-anchor="start" x="304" y="-248.3" font-family="Courier,monospace" font-size="14.00" fill="#3b6ea8">if</text>
<text text-anchor="start" x="321" y="-248.3" font-family="Courier,monospace" font-size="14.00"> istrans(vi, vn) </text>
</g>
<!-- assume&#45;&gt;iflinked -->
<g id="edge3" class="edge">
<title>assume&#45;&gt;iflinked</title>
<path fill="none" stroke="black" d="M378.5,-305.81C378.5,-297.79 378.5,-288.05 378.5,-279.07"/>
<polygon fill="black" stroke="black" points="382,-279.03 378.5,-269.03 375,-279.03 382,-279.03"/>
</g>
<!-- without_linking -->
<g id="node5" class="node">
<title>without_linking</title>
<polygon fill="none" stroke="black" points="355,-182 0,-182 0,-146 355,-146 355,-182"/>
<text text-anchor="middle" x="177.5" y="-160.3" font-family="Courier,monospace" font-size="14.00">f = from_internal_transform(vi, vn, dist)</text>
</g>
<!-- iflinked&#45;&gt;without_linking -->
<g id="edge4" class="edge">
<title>iflinked&#45;&gt;without_linking</title>
<path fill="none" stroke="black" d="M340.22,-233.81C308.15,-220.25 262.15,-200.8 227.24,-186.03"/>
<polygon fill="black" stroke="black" points="228.28,-182.67 217.7,-182 225.55,-189.12 228.28,-182.67"/>
<text text-anchor="start" x="290.5" y="-204.8" font-family="Courier,monospace" font-size="14.00"> &#160;</text>
<text text-anchor="start" x="307.5" y="-204.8" font-family="Courier,monospace" font-size="14.00" fill="#97365b">false</text>
</g>
<!-- with_linking -->
<g id="node6" class="node">
<title>with_linking</title>
<polygon fill="none" stroke="black" points="786,-182 373,-182 373,-146 786,-146 786,-182"/>
<text text-anchor="middle" x="579.5" y="-160.3" font-family="Courier,monospace" font-size="14.00">f = from_linked_internal_transform(vi, vn, dist)</text>
</g>
<!-- iflinked&#45;&gt;with_linking -->
<g id="edge5" class="edge">
<title>iflinked&#45;&gt;with_linking</title>
<path fill="none" stroke="black" d="M416.78,-233.81C448.85,-220.25 494.85,-200.8 529.76,-186.03"/>
<polygon fill="black" stroke="black" points="531.45,-189.12 539.3,-182 528.72,-182.67 531.45,-189.12"/>
<text text-anchor="start" x="490.5" y="-204.8" font-family="Courier,monospace" font-size="14.00"> &#160;</text>
<text text-anchor="start" x="507.5" y="-204.8" font-family="Courier,monospace" font-size="14.00" fill="#97365b">true</text>
</g>
<!-- with_logabsdetjac -->
<g id="node7" class="node">
<title>with_logabsdetjac</title>
<polygon fill="none" stroke="black" points="678.5,-109 76.5,-109 76.5,-73 678.5,-73 678.5,-109"/>
<text text-anchor="middle" x="377.5" y="-87.3" font-family="Courier,monospace" font-size="14.00">x, logjac = with_logabsdet_jacobian(f, getindex_internal(vi, vn, dist))</text>
</g>
<!-- without_linking&#45;&gt;with_logabsdetjac -->
<g id="edge6" class="edge">
<title>without_linking&#45;&gt;with_logabsdetjac</title>
<path fill="none" stroke="black" d="M225.4,-145.99C253.77,-135.92 289.89,-123.1 319.81,-112.48"/>
<polygon fill="black" stroke="black" points="321.04,-115.76 329.29,-109.11 318.7,-109.16 321.04,-115.76"/>
</g>
<!-- with_linking&#45;&gt;with_logabsdetjac -->
<g id="edge7" class="edge">
<title>with_linking&#45;&gt;with_logabsdetjac</title>
<path fill="none" stroke="black" d="M531.12,-145.99C502.47,-135.92 465.99,-123.1 435.76,-112.48"/>
<polygon fill="black" stroke="black" points="436.78,-109.13 426.19,-109.11 434.46,-115.73 436.78,-109.13"/>
</g>
<!-- return -->
<g id="node8" class="node">
<title>return</title>
<polygon fill="none" stroke="black" points="551.5,-36 203.5,-36 203.5,0 551.5,0 551.5,-36"/>
<text text-anchor="start" x="211.5" y="-15.3" font-family="Courier,monospace" font-size="14.00"> </text>
<text text-anchor="start" x="220.5" y="-15.3" font-family="Courier,monospace" font-size="14.00" fill="#3b6ea8">return</text>
<text text-anchor="start" x="270.5" y="-15.3" font-family="Courier,monospace" font-size="14.00"> x, logpdf(dist, x) &#45; logjac, vi </text>
</g>
<!-- with_logabsdetjac&#45;&gt;return -->
<g id="edge8" class="edge">
<title>with_logabsdetjac&#45;&gt;return</title>
<path fill="none" stroke="black" d="M377.5,-72.81C377.5,-64.79 377.5,-55.05 377.5,-46.07"/>
<polygon fill="black" stroke="black" points="381,-46.03 377.5,-36.03 374,-46.03 381,-46.03"/>
</g>
</g>
</svg>
